<?xml version="1.0" encoding="UTF-8" standalone="no"?>
<svg
   width="128"
   height="128"
   id="screenshot-0a164559-52a5-80c2-8006-305f55e284c1"
   viewBox="0 0 128 128"
   fill="none"
   version="1.1"
   xmlns="http://www.w3.org/2000/svg"
   xmlns:svg="http://www.w3.org/2000/svg">
  <defs
     id="defs38">
    <linearGradient
       id="swatch45">
      <stop
         style="stop-color:#000000;stop-opacity:0;"
         offset="0"
         id="stop46" />
    </linearGradient>
  </defs>
  <style
     id="style1">@font-face {
    font-family: 'sourcesanspro';
    font-style: normal;
    font-weight: 700;
    font-display: block;
    src: url(http://penpot-frontend:8080/fonts/sourcesanspro-bold.woff) format('woff');
  }
@font-face {
    font-family: 'sourcesanspro';
    font-style: normal;
    font-weight: 300;
    font-display: block;
    src: url(http://penpot-frontend:8080/fonts/sourcesanspro-light.woff) format('woff');
  }</style>
  <g
     id="shape-0a164559-52a5-80c2-8006-305f55e284c1"
     rx="0"
     ry="0"
     style="stroke-width:0.3;stroke-dasharray:none"
     transform="matrix(1.0000039,0,0,1,-2.4994254e-4,-0.2911985)">
    <g
       id="shape-0a164559-52a5-80c2-8006-305f4c6d0db9"
       rx="0"
       ry="0"
       style="display:inline;stroke-width:0.3;stroke-dasharray:none">
      <g
         id="outer"
         style="stroke-width:0.3;stroke-dasharray:none"
         transform="matrix(1,0,0,0.96875,0,0.2911985)">
        <defs
           id="defs8" />
        <g
           class="fills"
           id="fills-0a164559-52a5-80c2-8006-3053e59e63b4"
           style="stroke-width:0.3;stroke-dasharray:none">
          <rect
             rx="14.999942"
             ry="15.483871"
             x="0"
             y="0"
             width="128"
             height="128"
             fill="url(#fill-0-render-12)"
             id="rect9"
             style="fill:#ff4d00;fill-opacity:1;stroke-width:0.3;stroke-dasharray:none" />
        </g>
      </g>
      <g
         id="greyinner"
         transform="matrix(1.3166203,0,0,1.0829919,210.42416,-13.703542)"
         style="fill:#010101;fill-opacity:1;stroke-width:1.62488;stroke-dasharray:none;paint-order:markers fill stroke">
        <rect
           rx="10.461739"
           ry="12.927148"
           x="-157.54271"
           y="21.232607"
           width="92.661133"
           height="103.41721"
           style="fill:#6c5b5b;fill-opacity:1;stroke-width:1.62488;stroke-dasharray:none;paint-order:markers fill stroke"
           id="rect10-8" />
      </g>
      <g
         id="orangerectangle"
         transform="matrix(0.95967704,0,0,1.060988,-149.72301,-28.830502)"
         style="stroke-width:0.288726;stroke-dasharray:none">
        <g
           class="fills"
           id="fills-0a164559-52a5-80c2-8006-305ad351875c"
           transform="translate(164.32219,-25.370409)"
           style="stroke-width:0.288726;stroke-dasharray:none">
          <rect
             rx="0"
             ry="0"
             x="-5.2861376"
             y="60.829529"
             width="128.16762"
             height="16.965319"
             style="fill:#ff4d00;fill-opacity:1;stroke-width:0.288726;stroke-dasharray:none"
             id="rect11" />
        </g>
      </g>
      <g
         id="3dots"
         rx="0"
         ry="0"
         style="stroke-width:0.3;stroke-dasharray:none">
        <g
           id="shape-0a164559-52a5-80c2-8006-3057a91f3ab4"
           style="stroke-width:0.3;stroke-dasharray:none">
          <g
             class="fills"
             id="fills-0a164559-52a5-80c2-8006-3057a91f3ab4"
             style="stroke-width:0.3;stroke-dasharray:none">
            <circle
               cx="13.5"
               cy="41.5"
               style="fill:#000000;fill-opacity:1;stroke-width:0.3;stroke-dasharray:none"
               id="ellipse11"
               r="2.5" />
          </g>
        </g>
        <g
           id="shape-0a164559-52a5-80c2-8006-3057a91f3ab5"
           style="stroke-width:0.3;stroke-dasharray:none">
          <g
             class="fills"
             id="fills-0a164559-52a5-80c2-8006-3057a91f3ab5"
             style="stroke-width:0.3;stroke-dasharray:none">
            <circle
               cx="31.833334"
               cy="41.5"
               style="fill:#000000;fill-opacity:1;stroke-width:0.3;stroke-dasharray:none"
               id="ellipse12"
               r="2.5" />
          </g>
        </g>
        <g
           id="shape-0a164559-52a5-80c2-8006-3057a91f3ab6"
           style="stroke-width:0.3;stroke-dasharray:none">
          <g
             class="fills"
             id="fills-0a164559-52a5-80c2-8006-3057a91f3ab6"
             style="stroke-width:0.3;stroke-dasharray:none">
            <circle
               cx="22.666666"
               cy="41.5"
               style="fill:#000000;fill-opacity:1;stroke-width:0.3;stroke-dasharray:none"
               id="ellipse13"
               r="2.5" />
          </g>
        </g>
      </g>
      <g
         id="leq"
         style="stroke-width:0.3;stroke-dasharray:none">
        <g
           transform="rotate(-90,9.5,56)"
           class="text-container"
           x="5.5"
           y="47.5"
           width="8"
           height="17"
           rx="0"
           ry="0"
           id="g14"
           style="stroke-width:0.3;stroke-dasharray:none">
          <defs
             id="defs13" />
          <g
             class="fills"
             id="fills-0a164559-52a5-80c2-8006-305c05c69a25"
             style="stroke-width:0.3;stroke-dasharray:none">
            <text
               x="5.5"
               y="64.833336"
               dominant-baseline="ideographic"
               textLength="7.322917"
               lengthAdjust="spacingAndGlyphs"
               style="font-style:normal;font-weight:700;font-size:14px;font-family:sourcesanspro;letter-spacing:normal;text-transform:none;direction:ltr;white-space:pre;fill:#000000;fill-opacity:1;stroke-width:0.3;stroke-dasharray:none"
               id="text13">v</text>
          </g>
        </g>
      </g>
      <g
         id="2underscores"
         style="stroke-width:0.3;stroke-dasharray:none">
        <g
           class="text-container"
           x="19"
           y="49"
           width="66"
           height="16"
           rx="0"
           ry="0"
           id="g16"
           style="stroke-width:0.3;stroke-dasharray:none">
          <defs
             id="defs15" />
          <g
             class="fills"
             id="fills-0a164559-52a5-80c2-8006-305c38807fc0"
             style="stroke-width:0.3;stroke-dasharray:none">
            <text
               x="19"
               y="71.666672"
               dominant-baseline="ideographic"
               textLength="19.40625"
               lengthAdjust="spacingAndGlyphs"
               style="font-style:normal;font-weight:700;font-size:18px;font-family:sourcesanspro;letter-spacing:normal;text-transform:none;direction:ltr;white-space:pre;fill:#000000;fill-opacity:1;stroke-width:0.3;stroke-dasharray:none"
               id="text15">- - </text>
          </g>
        </g>
      </g>
      <g
         id="integr"
         width="17.088"
         height="40.216"
         rx="0"
         ry="0"
         style="fill:#000000;stroke-width:0.3;stroke-dasharray:none"
         transform="matrix(0.90742774,-0.03457416,-0.07974019,1.1711054,17.672331,-7.0063213)">
        <g
           id="shape-0a164559-52a5-80c2-8006-305d5125707c"
           rx="0"
           ry="0"
           style="display:inline;fill:#000000;stroke-width:0.3;stroke-dasharray:none">
          <g
             id="shape-0a164559-52a5-80c2-8006-305d5125adab"
             rx="0"
             ry="0"
             style="fill:#000000;stroke-width:0.3;stroke-dasharray:none">
            <g
               id="shape-0a164559-52a5-80c2-8006-305d5126b5ab"
               style="stroke-width:0.3;stroke-dasharray:none">
              <g
                 class="fills"
                 id="fills-0a164559-52a5-80c2-8006-305d5126b5ab"
                 style="stroke-width:0.3;stroke-dasharray:none">
                <path
                   d="m 54.313404,94.085518 c 0.693142,0.270759 1.613487,0.30497 2.761036,0.102623 l 0.104324,-0.01839 c 0.973679,-0.171684 1.86982,-0.783134 2.688416,-1.834343 0.818596,-1.051208 1.51078,-2.412643 2.076549,-4.084312 0.56577,-1.671661 1.078091,-3.341461 1.536953,-5.009392 0.458863,-1.667923 0.89576,-3.460457 1.310685,-5.377579 0.05004,-0.326232 0.09692,-0.568771 0.140617,-0.727623 1.405235,-6.671432 3.099251,-12.925231 5.082031,-18.761402 1.982788,-5.83617 3.494019,-9.669658 4.533707,-11.500461 0.162124,-0.300644 0.297226,-0.551182 0.405304,-0.751614 0.108078,-0.200432 0.346802,-0.575043 0.716156,-1.123833 0.369354,-0.54879 0.766434,-1.042011 1.191238,-1.479663 0.424805,-0.437653 0.952645,-0.901028 1.583512,-1.390129 0.630867,-0.489098 1.344207,-0.917168 2.140022,-1.284211 0.795807,-0.367042 1.664459,-0.626007 2.605949,-0.776901 1.947365,-0.343376 3.453118,-0.344376 4.517258,-0.003 1.064148,0.34137 1.723923,0.829609 1.979332,1.464726 0.06462,0.366466 -0.09233,0.69643 -0.470848,0.989891 -0.378525,0.29346 -0.753876,0.503231 -1.126053,0.629314 -0.372177,0.126083 -0.750816,0.215523 -1.135918,0.268311 -0.730262,0.128761 -1.410354,0.135322 -2.040291,0.01968 -0.629936,-0.115646 -0.9785,-0.364028 -1.045707,-0.745155 -0.124062,-0.703621 0.723785,-1.283882 2.543564,-1.740784 L 86.23925,40.8909 c -0.112083,-0.02558 -0.260223,-0.05236 -0.444435,-0.08034 -0.184212,-0.02798 -0.331062,-0.04742 -0.440552,-0.05835 -0.547462,-0.05461 -1.134163,-0.02673 -1.760101,0.08364 -0.486839,0.08584 -0.923393,0.253501 -1.30967,0.50299 -0.386276,0.249482 -0.870292,0.758034 -1.452049,1.52565 -0.581756,0.767617 -1.109939,1.737389 -1.584556,2.909317 -0.47461,1.171929 -1.029457,2.803879 -1.664536,4.895859 -0.635078,2.091976 -1.210708,4.521103 -1.726898,7.28738 -1.185799,5.272438 -2.506348,10.289013 -3.961655,15.04974 -1.455307,4.760719 -2.635719,8.233582 -3.541244,10.418595 -0.905518,2.184997 -1.613678,3.760856 -2.124474,4.727561 -2.075378,3.887619 -5.077816,6.177865 -9.007309,6.870743 -1.390972,0.245262 -2.700298,0.24186 -3.927974,-0.01022 -1.227677,-0.252076 -1.980854,-0.761635 -2.259526,-1.528679 -0.09046,-0.513054 0.177857,-0.923119 0.804966,-1.230179 0.62711,-0.307068 1.271023,-0.518852 1.931732,-0.635353 0.730263,-0.128762 1.410359,-0.135323 2.040291,-0.01968 0.629936,0.115646 0.978504,0.364029 1.045704,0.745155 0.124069,0.703621 -0.723785,1.283882 -2.54356,1.740784 z"
                   id="path17"
                   style="stroke-width:0.3;stroke-dasharray:none" />
              </g>
              <g
                 id="strokes-9af80f9f-e908-80a8-8007-ec56e62ab8af-0a164559-52a5-80c2-8006-305d5126b5ab"
                 class="strokes"
                 style="stroke-width:0.3;stroke-dasharray:none">
                <g
                   class="stroke-shape"
                   id="g18"
                   style="stroke-width:0.3;stroke-dasharray:none">
                  <path
                     d="m 54.313404,94.085518 c 0.693142,0.270759 1.613487,0.30497 2.761036,0.102623 l 0.104324,-0.01839 c 0.973679,-0.171684 1.86982,-0.783134 2.688416,-1.834343 0.818596,-1.051208 1.51078,-2.412643 2.076549,-4.084312 0.56577,-1.671661 1.078091,-3.341461 1.536953,-5.009392 0.458863,-1.667923 0.89576,-3.460457 1.310685,-5.377579 0.05004,-0.326232 0.09692,-0.568771 0.140617,-0.727623 1.405235,-6.671432 3.099251,-12.925231 5.082031,-18.761402 1.982788,-5.83617 3.494019,-9.669658 4.533707,-11.500461 0.162124,-0.300644 0.297226,-0.551182 0.405304,-0.751614 0.108078,-0.200432 0.346802,-0.575043 0.716156,-1.123833 0.369354,-0.54879 0.766434,-1.042011 1.191238,-1.479663 0.424805,-0.437653 0.952645,-0.901028 1.583512,-1.390129 0.630867,-0.489098 1.344207,-0.917168 2.140022,-1.284211 0.795807,-0.367042 1.664459,-0.626007 2.605949,-0.776901 1.947365,-0.343376 3.453118,-0.344376 4.517258,-0.003 1.064148,0.34137 1.723923,0.829609 1.979332,1.464726 0.06462,0.366466 -0.09233,0.69643 -0.470848,0.989891 -0.378525,0.29346 -0.753876,0.503231 -1.126053,0.629314 -0.372177,0.126083 -0.750816,0.215523 -1.135918,0.268311 -0.730262,0.128761 -1.410354,0.135322 -2.040291,0.01968 -0.629936,-0.115646 -0.9785,-0.364028 -1.045707,-0.745155 -0.124062,-0.703621 0.723785,-1.283882 2.543564,-1.740784 L 86.23925,40.8909 c -0.112083,-0.02558 -0.260223,-0.05236 -0.444435,-0.08034 -0.184212,-0.02798 -0.331062,-0.04742 -0.440552,-0.05835 -0.547462,-0.05461 -1.134163,-0.02673 -1.760101,0.08364 -0.486839,0.08584 -0.923393,0.253501 -1.30967,0.50299 -0.386276,0.249482 -0.870292,0.758034 -1.452049,1.52565 -0.581756,0.767617 -1.109939,1.737389 -1.584556,2.909317 -0.47461,1.171929 -1.029457,2.803879 -1.664536,4.895859 -0.635078,2.091976 -1.210708,4.521103 -1.726898,7.28738 -1.185799,5.272438 -2.506348,10.289013 -3.961655,15.04974 -1.455307,4.760719 -2.635719,8.233582 -3.541244,10.418595 -0.905518,2.184997 -1.613678,3.760856 -2.124474,4.727561 -2.075378,3.887619 -5.077816,6.177865 -9.007309,6.870743 -1.390972,0.245262 -2.700298,0.24186 -3.927974,-0.01022 -1.227677,-0.252076 -1.980854,-0.761635 -2.259526,-1.528679 -0.09046,-0.513054 0.177857,-0.923119 0.804966,-1.230179 0.62711,-0.307068 1.271023,-0.518852 1.931732,-0.635353 0.730263,-0.128762 1.410359,-0.135323 2.040291,-0.01968 0.629936,0.115646 0.978504,0.364029 1.045704,0.745155 0.124069,0.703621 -0.723785,1.283882 -2.54356,1.740784 z"
                     style="fill:none;stroke:#000000;stroke-width:0.3;stroke-dasharray:none;stroke-opacity:1"
                     id="path18" />
                </g>
              </g>
            </g>
          </g>
        </g>
      </g>
      <g
         id="silktex"
         width="52.816"
         height="16.4"
         rx="0"
         ry="0"
         style="fill:#000000;stroke-width:0.3;stroke-dasharray:none">
        <g
           id="shape-0a164559-52a5-80c2-8006-305e1209fa83"
           rx="0"
           ry="0"
           style="display:inline;fill:#000000;stroke-width:0.3;stroke-dasharray:none">
          <g
             id="shape-0a164559-52a5-80c2-8006-305e120a00a1"
             rx="0"
             ry="0"
             style="display:inline;fill:#000000;stroke-width:0.3;stroke-dasharray:none">
            <g
               id="shape-0a164559-52a5-80c2-8006-305e120a4b66"
               rx="0"
               ry="0"
               style="fill:#000000;stroke-width:0.3;stroke-dasharray:none">
              <g
                 id="shape-0a164559-52a5-80c2-8006-305e120bbc29"
                 style="stroke-width:0.3;stroke-dasharray:none">
                <g
                   class="fills"
                   id="fills-0a164559-52a5-80c2-8006-305e120bbc29"
                   style="stroke-width:0.3;stroke-dasharray:none">
                  <path
                     d="m 23.514889,17.016815 c 0.336641,0 0.504963,0.243132 0.504963,0.729391 0,0.710688 0.317938,1.561644 0.953817,2.552868 0.130917,0.205725 0.374046,0.495611 0.729391,0.869658 0.355343,0.374046 0.673283,0.663932 0.953818,0.869657 1.028627,0.673285 1.945041,1.009926 2.749242,1.009926 0.95382,0 1.739315,-0.168322 2.356491,-0.504963 0.374047,-0.168321 0.71069,-0.523664 1.009926,-1.066032 0.16832,-0.430153 0.25248,-0.897711 0.25248,-1.402674 0,-0.972521 -0.345989,-1.814125 -1.037976,-2.524815 -0.691986,-0.710687 -1.954395,-1.45878 -3.787221,-2.244278 -1.888936,-0.822902 -3.263556,-1.673857 -4.123862,-2.552866 -0.860307,-0.87901 -1.29046,-1.916989 -1.29046,-3.1139369 0,-1.122139 0.252481,-2.1414156 0.757444,-3.0578299 0.804199,-1.3465671 2.272331,-2.1788206 4.404396,-2.4967594 0.03741,0 0.215077,-0.00935 0.533016,-0.028054 0.31794,-0.018702 0.598475,-0.028053 0.841605,-0.028053 0.89771,0.056108 1.636453,0.1870231 2.216226,0.3927488 0.579769,0.2057257 1.215649,0.3179398 1.907635,0.3366423 C 33.875973,4.7013379 34.221966,4.56107 34.483799,4.3366428 34.745632,4.1122141 34.932655,4 35.044868,4 c 0.168324,0 0.31794,0.1122141 0.448857,0.3366423 v 5.4143219 l -0.112213,0.1963739 c -0.24313,0.1683209 -0.495613,0.1683209 -0.757447,0 -0.07481,-0.1870232 -0.112213,-0.2898855 -0.112213,-0.308588 0,-0.8416043 -0.561069,-1.8234768 -1.683208,-2.9456158 -1.122139,-1.122139 -2.300385,-1.6832085 -3.534739,-1.6832085 -0.841604,0 -1.570995,0.2524805 -2.188171,0.7574435 -0.617176,0.5049629 -0.935116,1.196949 -0.953819,2.0759582 0,0.6919852 0.355344,1.3372154 1.066032,1.9356899 0.71069,0.5984746 1.954393,1.2343536 3.731115,1.9076366 0.617176,0.261832 1.094086,0.476909 1.430725,0.64523 0.336644,0.168321 0.7855,0.411452 1.34657,0.729391 0.561069,0.317939 1.028625,0.701336 1.402671,1.150193 0.374047,0.448856 0.729393,0.953818 1.066033,1.514888 0.411453,0.841605 0.61718,1.711262 0.61718,2.608973 0,1.664507 -0.673287,3.020426 -2.019852,4.067755 -1.346569,1.047331 -3.123287,1.570995 -5.330162,1.570995 -1.028628,0 -1.870234,-0.112213 -2.524815,-0.336641 -0.654581,-0.224428 -1.271757,-0.345993 -1.85153,-0.364695 -0.448854,0.112213 -0.794847,0.261832 -1.037977,0.448855 -0.243132,0.187023 -0.430155,0.289886 -0.56107,0.308588 -0.168321,0 -0.317939,-0.102862 -0.448856,-0.308588 v -3.170042 -1.963745 c 0,-0.598475 0.02805,-1.009926 0.08416,-1.234353 0.05611,-0.224428 0.187023,-0.336643 0.39275,-0.336643 z M 34.511852,6.3284388 c 0,-0.542367 -0.0187,-0.813551 -0.05611,-0.813551 -0.09351,0.037405 -0.177674,0.074809 -0.25248,0.1122141 -0.187023,0 -0.374046,0.046756 -0.561069,0.1402674 h -0.30859 l 0.364696,0.4208021 c 0.33664,0.3366423 0.542366,0.5517187 0.617176,0.6452303 l 0.196373,0.2524814 z m -9.03322,0 0.112213,-0.4488554 c -0.0374,0 -0.224426,0.1683206 -0.561069,0.5049629 -0.822901,0.7667951 -1.234352,1.8421783 -1.234352,3.2261505 0,0.2431297 0.0093,0.4582062 0.02805,0.6452302 0.0187,0.187023 0.121565,0.467558 0.308588,0.841604 0.187023,0.374047 0.430153,0.701337 0.729391,0.981872 0.299236,0.280535 0.748093,0.635879 1.346567,1.066032 0.598475,0.430153 1.327864,0.813551 2.188171,1.150193 2.001149,0.822902 3.431878,1.664507 4.292183,2.524814 0.860306,0.860306 1.290459,1.954392 1.290459,3.282257 0,0.63588 -0.07481,1.131491 -0.224426,1.486834 l -0.112213,0.39275 c 0.112213,0 0.420799,-0.252482 0.925762,-0.757445 0.785499,-0.729391 1.178249,-1.683208 1.178249,-2.861456 0,-0.804199 -0.14027,-1.496185 -0.420803,-2.075956 C 34.970058,15.632844 34.549259,15.099828 34.062996,14.688377 33.539333,14.164712 32.96891,13.734558 32.351734,13.397917 31.734558,13.061275 30.967762,12.715282 30.05135,12.359938 29.134935,12.004594 28.358789,11.658601 27.72291,11.321959 26.488558,10.573866 25.693708,9.7790174 25.338364,8.9374132 25.226151,8.600771 25.170044,8.2360754 25.170044,7.8433275 c 0,-0.579772 0.102861,-1.0847349 0.308588,-1.5148887 z m -1.37462,16.1588072 c 0.0187,0 0.158969,-0.02805 0.420801,-0.08416 0.261833,-0.05611 0.448856,-0.09351 0.561069,-0.112213 h 0.252482 l -0.364695,-0.39275 -0.897711,-1.037977 c -0.0374,0 -0.05611,0.271183 -0.05611,0.813551 0,0.542366 0.02805,0.813551 0.08416,0.813551 z"
                     id="path25"
                     style="stroke-width:0.3;stroke-dasharray:none" />
                </g>
                <g
                   id="strokes-9af80f9f-e908-80a8-8007-ec56e63063a0-0a164559-52a5-80c2-8006-305e120bbc29"
                   class="strokes"
                   style="stroke-width:0.3;stroke-dasharray:none">
                  <g
                     class="stroke-shape"
                     id="g26"
                     style="stroke-width:0.3;stroke-dasharray:none">
                    <path
                       d="m 23.514889,17.016815 c 0.336641,0 0.504963,0.243132 0.504963,0.729391 0,0.710688 0.317938,1.561644 0.953817,2.552868 0.130917,0.205725 0.374046,0.495611 0.729391,0.869658 0.355343,0.374046 0.673283,0.663932 0.953818,0.869657 1.028627,0.673285 1.945041,1.009926 2.749242,1.009926 0.95382,0 1.739315,-0.168322 2.356491,-0.504963 0.374047,-0.168321 0.71069,-0.523664 1.009926,-1.066032 0.16832,-0.430153 0.25248,-0.897711 0.25248,-1.402674 0,-0.972521 -0.345989,-1.814125 -1.037976,-2.524815 -0.691986,-0.710687 -1.954395,-1.45878 -3.787221,-2.244278 -1.888936,-0.822902 -3.263556,-1.673857 -4.123862,-2.552866 -0.860307,-0.87901 -1.29046,-1.916989 -1.29046,-3.1139369 0,-1.122139 0.252481,-2.1414156 0.757444,-3.0578299 0.804199,-1.3465671 2.272331,-2.1788206 4.404396,-2.4967594 0.03741,0 0.215077,-0.00935 0.533016,-0.028054 0.31794,-0.018702 0.598475,-0.028053 0.841605,-0.028053 0.89771,0.056108 1.636453,0.1870231 2.216226,0.3927488 0.579769,0.2057257 1.215649,0.3179398 1.907635,0.3366423 C 33.875973,4.7013379 34.221966,4.56107 34.483799,4.3366428 34.745632,4.1122141 34.932655,4 35.044868,4 c 0.168324,0 0.31794,0.1122141 0.448857,0.3366423 v 5.4143219 l -0.112213,0.1963739 c -0.24313,0.1683209 -0.495613,0.1683209 -0.757447,0 -0.07481,-0.1870232 -0.112213,-0.2898855 -0.112213,-0.308588 0,-0.8416043 -0.561069,-1.8234768 -1.683208,-2.9456158 -1.122139,-1.122139 -2.300385,-1.6832085 -3.534739,-1.6832085 -0.841604,0 -1.570995,0.2524805 -2.188171,0.7574435 -0.617176,0.5049629 -0.935116,1.196949 -0.953819,2.0759582 0,0.6919852 0.355344,1.3372154 1.066032,1.9356899 0.71069,0.5984746 1.954393,1.2343536 3.731115,1.9076366 0.617176,0.261832 1.094086,0.476909 1.430725,0.64523 0.336644,0.168321 0.7855,0.411452 1.34657,0.729391 0.561069,0.317939 1.028625,0.701336 1.402671,1.150193 0.374047,0.448856 0.729393,0.953818 1.066033,1.514888 0.411453,0.841605 0.61718,1.711262 0.61718,2.608973 0,1.664507 -0.673287,3.020426 -2.019852,4.067755 -1.346569,1.047331 -3.123287,1.570995 -5.330162,1.570995 -1.028628,0 -1.870234,-0.112213 -2.524815,-0.336641 -0.654581,-0.224428 -1.271757,-0.345993 -1.85153,-0.364695 -0.448854,0.112213 -0.794847,0.261832 -1.037977,0.448855 -0.243132,0.187023 -0.430155,0.289886 -0.56107,0.308588 -0.168321,0 -0.317939,-0.102862 -0.448856,-0.308588 v -3.170042 -1.963745 c 0,-0.598475 0.02805,-1.009926 0.08416,-1.234353 0.05611,-0.224428 0.187023,-0.336643 0.39275,-0.336643 z M 34.511852,6.3284388 c 0,-0.542367 -0.0187,-0.813551 -0.05611,-0.813551 -0.09351,0.037405 -0.177674,0.074809 -0.25248,0.1122141 -0.187023,0 -0.374046,0.046756 -0.561069,0.1402674 h -0.30859 l 0.364696,0.4208021 c 0.33664,0.3366423 0.542366,0.5517187 0.617176,0.6452303 l 0.196373,0.2524814 z m -9.03322,0 0.112213,-0.4488554 c -0.0374,0 -0.224426,0.1683206 -0.561069,0.5049629 -0.822901,0.7667951 -1.234352,1.8421783 -1.234352,3.2261505 0,0.2431297 0.0093,0.4582062 0.02805,0.6452302 0.0187,0.187023 0.121565,0.467558 0.308588,0.841604 0.187023,0.374047 0.430153,0.701337 0.729391,0.981872 0.299236,0.280535 0.748093,0.635879 1.346567,1.066032 0.598475,0.430153 1.327864,0.813551 2.188171,1.150193 2.001149,0.822902 3.431878,1.664507 4.292183,2.524814 0.860306,0.860306 1.290459,1.954392 1.290459,3.282257 0,0.63588 -0.07481,1.131491 -0.224426,1.486834 l -0.112213,0.39275 c 0.112213,0 0.420799,-0.252482 0.925762,-0.757445 0.785499,-0.729391 1.178249,-1.683208 1.178249,-2.861456 0,-0.804199 -0.14027,-1.496185 -0.420803,-2.075956 C 34.970058,15.632844 34.549259,15.099828 34.062996,14.688377 33.539333,14.164712 32.96891,13.734558 32.351734,13.397917 31.734558,13.061275 30.967762,12.715282 30.05135,12.359938 29.134935,12.004594 28.358789,11.658601 27.72291,11.321959 26.488558,10.573866 25.693708,9.7790174 25.338364,8.9374132 25.226151,8.600771 25.170044,8.2360754 25.170044,7.8433275 c 0,-0.579772 0.102861,-1.0847349 0.308588,-1.5148887 z m -1.37462,16.1588072 c 0.0187,0 0.158969,-0.02805 0.420801,-0.08416 0.261833,-0.05611 0.448856,-0.09351 0.561069,-0.112213 h 0.252482 l -0.364695,-0.39275 -0.897711,-1.037977 c -0.0374,0 -0.05611,0.271183 -0.05611,0.813551 0,0.542366 0.02805,0.813551 0.08416,0.813551 z"
                       style="fill:none;stroke:#000000;stroke-width:0.3;stroke-dasharray:none;stroke-opacity:1"
                       id="path26" />
                  </g>
                </g>
              </g>
            </g>
          </g>
          <g
             id="shape-0a164559-52a5-80c2-8006-305e1210487e"
             rx="0"
             ry="0"
             style="display:inline;fill:#000000;stroke-width:0.3;stroke-dasharray:none">
            <g
               id="shape-0a164559-52a5-80c2-8006-305e12113a3d"
               style="stroke-width:0.3;stroke-dasharray:none">
              <g
                 class="fills"
                 id="fills-0a164559-52a5-80c2-8006-305e12113a3d"
                 style="stroke-width:0.3;stroke-dasharray:none">
                <path
                   d="m 102.45739,27.20023 c 0,0.411451 -0.27119,0.879009 -0.81355,1.402675 -0.54237,0.523663 -1.10344,0.794848 -1.683215,0.813549 h -0.308586 c -1.533593,0 -2.590271,-0.439502 -3.170044,-1.318512 -0.542366,-0.804201 -1.196946,-2.515463 -1.963745,-5.133789 l -0.25248,-0.925764 c -0.0187,0.0187 -0.355347,0.392748 -1.009926,1.122139 -0.654579,0.729391 -1.383972,1.524241 -2.188171,2.384546 -0.804199,0.860306 -1.533592,1.655156 -2.188172,2.384547 -0.654579,0.729391 -1.019272,1.103437 -1.094085,1.122139 -0.07481,0.05611 -0.16832,0.08416 -0.280533,0.08416 -0.130921,0 -0.243134,-0.04676 -0.33664,-0.140268 -0.09351,-0.09351 -0.14962,-0.205725 -0.168327,-0.336641 -0.0187,-0.130917 0.102867,-0.345993 0.3647,-0.645229 0.261834,-0.299239 1.318512,-1.458783 3.170044,-3.478634 l 3.394471,-3.703059 -0.196373,-0.813551 c -1.42138,-5.124437 -2.637032,-7.686655 -3.646958,-7.686655 -0.579773,0 -1.028625,0.439505 -1.346565,1.318514 -0.0187,0.130917 -0.196373,0.196374 -0.533012,0.196374 -0.374047,0 -0.561074,-0.09351 -0.561074,-0.280535 0,-0.149619 0.07481,-0.383397 0.224427,-0.701336 0.14962,-0.31794 0.458206,-0.663933 0.925765,-1.03798 0.46756,-0.374046 1.01928,-0.551718 1.655159,-0.533016 1.421372,0 2.450005,0.392749 3.085877,1.178247 0.336647,0.467558 0.70134,1.215651 1.094086,2.244279 0.392753,1.028627 0.701339,1.945041 0.925766,2.749241 l 0.308593,1.178245 c 0.05611,0 1.122139,-1.150192 3.198098,-3.450578 2.07596,-2.300385 3.17939,-3.478632 3.31031,-3.534738 0.11221,-0.03741 0.19637,-0.05611 0.25248,-0.05611 0.33664,0 0.50496,0.158969 0.50496,0.476909 0,0.130917 -0.12156,0.336641 -0.36469,0.617176 -0.24314,0.280535 -1.27176,1.421377 -3.085888,3.422525 -2.262978,2.468707 -3.422524,3.740466 -3.47863,3.815274 l 0.252479,0.897712 c 0.561074,2.09466 1.178246,3.880732 1.851532,5.358214 0.673287,1.477484 1.253052,2.216224 1.739317,2.216224 0.26183,0 0.51431,-0.112213 0.75744,-0.336639 0.24313,-0.224428 0.42081,-0.504963 0.53302,-0.841606 0.0561,-0.187023 0.12157,-0.289887 0.19637,-0.308588 0.0748,-0.0187 0.20573,-0.02805 0.39275,-0.02805 0.18703,0 0.31794,0.0094 0.39275,0.02805 0.0935,0.05611 0.14027,0.149618 0.14027,0.280535 z"
                   id="path27"
                   style="stroke-width:0.3;stroke-dasharray:none" />
              </g>
              <g
                 id="strokes-9af80f9f-e908-80a8-8007-ec56e6311768-0a164559-52a5-80c2-8006-305e12113a3d"
                 class="strokes"
                 style="stroke-width:0.3;stroke-dasharray:none">
                <g
                   class="stroke-shape"
                   id="g28"
                   style="stroke-width:0.3;stroke-dasharray:none">
                  <path
                     d="m 102.45739,27.20023 c 0,0.411451 -0.27119,0.879009 -0.81355,1.402675 -0.54237,0.523663 -1.10344,0.794848 -1.683215,0.813549 h -0.308586 c -1.533593,0 -2.590271,-0.439502 -3.170044,-1.318512 -0.542366,-0.804201 -1.196946,-2.515463 -1.963745,-5.133789 l -0.25248,-0.925764 c -0.0187,0.0187 -0.355347,0.392748 -1.009926,1.122139 -0.654579,0.729391 -1.383972,1.524241 -2.188171,2.384546 -0.804199,0.860306 -1.533592,1.655156 -2.188172,2.384547 -0.654579,0.729391 -1.019272,1.103437 -1.094085,1.122139 -0.07481,0.05611 -0.16832,0.08416 -0.280533,0.08416 -0.130921,0 -0.243134,-0.04676 -0.33664,-0.140268 -0.09351,-0.09351 -0.14962,-0.205725 -0.168327,-0.336641 -0.0187,-0.130917 0.102867,-0.345993 0.3647,-0.645229 0.261834,-0.299239 1.318512,-1.458783 3.170044,-3.478634 l 3.394471,-3.703059 -0.196373,-0.813551 c -1.42138,-5.124437 -2.637032,-7.686655 -3.646958,-7.686655 -0.579773,0 -1.028625,0.439505 -1.346565,1.318514 -0.0187,0.130917 -0.196373,0.196374 -0.533012,0.196374 -0.374047,0 -0.561074,-0.09351 -0.561074,-0.280535 0,-0.149619 0.07481,-0.383397 0.224427,-0.701336 0.14962,-0.31794 0.458206,-0.663933 0.925765,-1.03798 0.46756,-0.374046 1.01928,-0.551718 1.655159,-0.533016 1.421372,0 2.450005,0.392749 3.085877,1.178247 0.336647,0.467558 0.70134,1.215651 1.094086,2.244279 0.392753,1.028627 0.701339,1.945041 0.925766,2.749241 l 0.308593,1.178245 c 0.05611,0 1.122139,-1.150192 3.198098,-3.450578 2.07596,-2.300385 3.17939,-3.478632 3.31031,-3.534738 0.11221,-0.03741 0.19637,-0.05611 0.25248,-0.05611 0.33664,0 0.50496,0.158969 0.50496,0.476909 0,0.130917 -0.12156,0.336641 -0.36469,0.617176 -0.24314,0.280535 -1.27176,1.421377 -3.085888,3.422525 -2.262978,2.468707 -3.422524,3.740466 -3.47863,3.815274 l 0.252479,0.897712 c 0.561074,2.09466 1.178246,3.880732 1.851532,5.358214 0.673287,1.477484 1.253052,2.216224 1.739317,2.216224 0.26183,0 0.51431,-0.112213 0.75744,-0.336639 0.24313,-0.224428 0.42081,-0.504963 0.53302,-0.841606 0.0561,-0.187023 0.12157,-0.289887 0.19637,-0.308588 0.0748,-0.0187 0.20573,-0.02805 0.39275,-0.02805 0.18703,0 0.31794,0.0094 0.39275,0.02805 0.0935,0.05611 0.14027,0.149618 0.14027,0.280535 z"
                     style="fill:none;stroke:#000000;stroke-width:0.3;stroke-dasharray:none;stroke-opacity:1"
                     id="path28" />
                </g>
              </g>
            </g>
          </g>
          <g
             id="shape-0a164559-52a5-80c2-8006-305e120c2072"
             rx="0"
             ry="0"
             style="display:inline;fill:#000000;stroke-width:0.3;stroke-dasharray:none">
            <g
               id="shape-0a164559-52a5-80c2-8006-305e120cdf99"
               style="stroke-width:0.3;stroke-dasharray:none">
              <g
                 class="fills"
                 id="fills-0a164559-52a5-80c2-8006-305e120cdf99"
                 style="stroke-width:0.3;stroke-dasharray:none">
                <path
                   d="m 42.759579,6.861455 c 0,-0.4488554 0.177669,-0.8416043 0.533016,-1.1782456 0.355343,-0.3366422 0.766792,-0.5143146 1.234352,-0.5330162 0.336639,0 0.617176,0.1122131 0.841602,0.3366413 0.22443,0.2244282 0.345993,0.5049629 0.364697,0.8416043 0,0.4301538 -0.187023,0.8229026 -0.56107,1.1782465 -0.374046,0.3553438 -0.785495,0.5423669 -1.234352,0.5610694 -0.280536,0 -0.54237,-0.093511 -0.785499,-0.2805347 -0.24313,-0.1870232 -0.374047,-0.4956112 -0.392746,-0.925765 z m -4.57272,8.78074 c 0,-0.149618 0.08416,-0.439505 0.252483,-0.869658 0.16832,-0.430153 0.392746,-0.907062 0.673283,-1.430727 0.280533,-0.523665 0.691986,-1.000574 1.234352,-1.430728 0.542366,-0.430154 1.103436,-0.635879 1.683209,-0.617177 0.729393,0 1.337215,0.215077 1.823478,0.645231 0.48626,0.430153 0.738739,1.009924 0.757443,1.739316 0,0.317939 -0.130917,0.841604 -0.39275,1.570995 -0.261833,0.72939 -0.635879,1.711262 -1.122139,2.945616 -0.486259,1.234352 -0.879009,2.291034 -1.178245,3.170044 -0.09351,0.411449 -0.140267,0.710687 -0.140267,0.89771 0,0.467558 0.15897,0.701336 0.47691,0.701336 0.168319,0 0.345993,-0.02805 0.533016,-0.08416 0.187023,-0.05611 0.4021,-0.187023 0.645229,-0.392747 0.24313,-0.205727 0.49561,-0.533017 0.757443,-0.981873 0.261833,-0.448856 0.495613,-1.000574 0.70134,-1.655155 0.05611,-0.224428 0.102859,-0.355345 0.140266,-0.39275 0.0374,-0.0374 0.196373,-0.05611 0.47691,-0.05611 0.374046,0 0.561069,0.09351 0.561069,0.280535 0,0.14962 -0.08416,0.439505 -0.252483,0.86966 -0.16832,0.430153 -0.4021,0.907062 -0.701336,1.430727 -0.299237,0.523664 -0.72004,0.991222 -1.262406,1.402673 -0.542369,0.411452 -1.122139,0.617176 -1.739318,0.617176 -0.598473,0 -1.150193,-0.196373 -1.655156,-0.589122 -0.504963,-0.392748 -0.766792,-0.991223 -0.785495,-1.795422 0,-0.31794 0.04676,-0.617178 0.140266,-0.897713 0.09351,-0.280534 0.495613,-1.346567 1.206299,-3.198097 0.710689,-1.888934 1.122139,-3.020424 1.234356,-3.39447 0.112213,-0.374047 0.177669,-0.738743 0.196373,-1.094087 0,-0.448855 -0.15897,-0.673283 -0.47691,-0.673283 h -0.05611 c -0.56107,0 -1.075383,0.308588 -1.542942,0.925765 -0.467556,0.617177 -0.822903,1.402674 -1.066033,2.356492 -0.0187,0.0187 -0.0374,0.04676 -0.05611,0.08416 -0.0187,0.03741 -0.02805,0.06546 -0.02805,0.08416 0,0.0187 -0.0187,0.0374 -0.05611,0.05611 -0.0374,0.0187 -0.06546,0.02805 -0.08416,0.02805 -0.0187,0 -0.05611,0 -0.112213,0 -0.05611,0 -0.130917,0 -0.22443,0 h -0.39275 c -0.112213,-0.112213 -0.16832,-0.196374 -0.16832,-0.252481 z"
                   id="path29"
                   style="stroke-width:0.3;stroke-dasharray:none" />
              </g>
              <g
                 id="strokes-9af80f9f-e908-80a8-8007-ec56e632153e-0a164559-52a5-80c2-8006-305e120cdf99"
                 class="strokes"
                 style="stroke-width:0.3;stroke-dasharray:none">
                <g
                   class="stroke-shape"
                   id="g30"
                   style="stroke-width:0.3;stroke-dasharray:none">
                  <path
                     d="m 42.759579,6.861455 c 0,-0.4488554 0.177669,-0.8416043 0.533016,-1.1782456 0.355343,-0.3366422 0.766792,-0.5143146 1.234352,-0.5330162 0.336639,0 0.617176,0.1122131 0.841602,0.3366413 0.22443,0.2244282 0.345993,0.5049629 0.364697,0.8416043 0,0.4301538 -0.187023,0.8229026 -0.56107,1.1782465 -0.374046,0.3553438 -0.785495,0.5423669 -1.234352,0.5610694 -0.280536,0 -0.54237,-0.093511 -0.785499,-0.2805347 -0.24313,-0.1870232 -0.374047,-0.4956112 -0.392746,-0.925765 z m -4.57272,8.78074 c 0,-0.149618 0.08416,-0.439505 0.252483,-0.869658 0.16832,-0.430153 0.392746,-0.907062 0.673283,-1.430727 0.280533,-0.523665 0.691986,-1.000574 1.234352,-1.430728 0.542366,-0.430154 1.103436,-0.635879 1.683209,-0.617177 0.729393,0 1.337215,0.215077 1.823478,0.645231 0.48626,0.430153 0.738739,1.009924 0.757443,1.739316 0,0.317939 -0.130917,0.841604 -0.39275,1.570995 -0.261833,0.72939 -0.635879,1.711262 -1.122139,2.945616 -0.486259,1.234352 -0.879009,2.291034 -1.178245,3.170044 -0.09351,0.411449 -0.140267,0.710687 -0.140267,0.89771 0,0.467558 0.15897,0.701336 0.47691,0.701336 0.168319,0 0.345993,-0.02805 0.533016,-0.08416 0.187023,-0.05611 0.4021,-0.187023 0.645229,-0.392747 0.24313,-0.205727 0.49561,-0.533017 0.757443,-0.981873 0.261833,-0.448856 0.495613,-1.000574 0.70134,-1.655155 0.05611,-0.224428 0.102859,-0.355345 0.140266,-0.39275 0.0374,-0.0374 0.196373,-0.05611 0.47691,-0.05611 0.374046,0 0.561069,0.09351 0.561069,0.280535 0,0.14962 -0.08416,0.439505 -0.252483,0.86966 -0.16832,0.430153 -0.4021,0.907062 -0.701336,1.430727 -0.299237,0.523664 -0.72004,0.991222 -1.262406,1.402673 -0.542369,0.411452 -1.122139,0.617176 -1.739318,0.617176 -0.598473,0 -1.150193,-0.196373 -1.655156,-0.589122 -0.504963,-0.392748 -0.766792,-0.991223 -0.785495,-1.795422 0,-0.31794 0.04676,-0.617178 0.140266,-0.897713 0.09351,-0.280534 0.495613,-1.346567 1.206299,-3.198097 0.710689,-1.888934 1.122139,-3.020424 1.234356,-3.39447 0.112213,-0.374047 0.177669,-0.738743 0.196373,-1.094087 0,-0.448855 -0.15897,-0.673283 -0.47691,-0.673283 h -0.05611 c -0.56107,0 -1.075383,0.308588 -1.542942,0.925765 -0.467556,0.617177 -0.822903,1.402674 -1.066033,2.356492 -0.0187,0.0187 -0.0374,0.04676 -0.05611,0.08416 -0.0187,0.03741 -0.02805,0.06546 -0.02805,0.08416 0,0.0187 -0.0187,0.0374 -0.05611,0.05611 -0.0374,0.0187 -0.06546,0.02805 -0.08416,0.02805 -0.0187,0 -0.05611,0 -0.112213,0 -0.05611,0 -0.130917,0 -0.22443,0 h -0.39275 c -0.112213,-0.112213 -0.16832,-0.196374 -0.16832,-0.252481 z"
                     style="fill:none;stroke:#000000;stroke-width:0.3;stroke-dasharray:none;stroke-opacity:1"
                     id="path30" />
                </g>
              </g>
            </g>
          </g>
          <g
             id="shape-0a164559-52a5-80c2-8006-305e120d00c9"
             rx="0"
             ry="0"
             style="display:inline;fill:#000000;stroke-width:0.3;stroke-dasharray:none">
            <g
               id="shape-0a164559-52a5-80c2-8006-305e120df14d"
               style="stroke-width:0.3;stroke-dasharray:none">
              <g
                 class="fills"
                 id="fills-0a164559-52a5-80c2-8006-305e120df14d"
                 style="stroke-width:0.3;stroke-dasharray:none">
                <path
                   d="m 50.558445,22.038389 c 0,0.617176 0.23378,0.925764 0.701336,0.925764 0.691986,0 1.281109,-0.98187 1.767372,-2.945614 0.112213,-0.374048 0.205723,-0.570421 0.280533,-0.589124 0.03741,-0.0187 0.130916,-0.02805 0.280537,-0.02805 h 0.112213 c 0.168319,0 0.280532,0 0.336643,0 0.05611,0 0.102859,0.0187 0.140266,0.05611 0.0374,0.0374 0.05611,0.102863 0.05611,0.196375 -0.0187,0.112215 -0.04676,0.261833 -0.08416,0.448856 -0.03741,0.187023 -0.14027,0.542368 -0.30859,1.066033 -0.16832,0.523664 -0.355343,0.963169 -0.561069,1.318514 -0.205727,0.355342 -0.49561,0.701335 -0.869656,1.037979 -0.37405,0.336641 -0.804203,0.495611 -1.290463,0.476907 -0.673282,0 -1.299812,-0.205724 -1.879581,-0.617176 -0.579773,-0.411451 -0.879009,-1.103437 -0.897713,-2.075958 0,-0.224426 0.0094,-0.383396 0.02805,-0.476908 l 1.823474,-7.237798 c 1.17825,-4.7690929 1.767373,-7.2284482 1.767373,-7.3780673 0,-0.056107 -0.0094,-0.1028624 -0.02805,-0.1402674 -0.0187,-0.037404 -0.05611,-0.074809 -0.112217,-0.1122131 -0.05611,-0.037405 -0.102859,-0.056108 -0.140266,-0.056108 -0.0374,0 -0.112213,-0.00935 -0.224426,-0.028053 -0.112213,-0.018702 -0.187023,-0.028053 -0.22443,-0.028053 -0.0374,0 -0.121563,-0.00935 -0.25248,-0.028053 -0.130917,-0.018702 -0.22443,-0.018702 -0.280537,0 -0.187023,0 -0.308586,0 -0.364692,0 -0.05611,0 -0.130917,-0.00935 -0.22443,-0.028054 -0.09351,-0.018702 -0.149617,-0.046756 -0.16832,-0.08416 -0.0187,-0.037405 -0.02805,-0.093512 -0.02805,-0.1683216 0,-0.037404 0.0187,-0.1683207 0.05611,-0.3927479 0.09351,-0.3553448 0.196373,-0.5517187 0.30859,-0.5891237 0.112213,-0.037404 0.785496,-0.093512 2.019848,-0.1683207 0.280537,-0.018702 0.598476,-0.037405 0.953819,-0.056106 0.355343,-0.018702 0.63588,-0.046757 0.841606,-0.084161 0.205723,-0.037405 0.308587,-0.046756 0.308587,-0.028053 0.22443,0 0.336643,0.074809 0.336643,0.2244272 0,0.2057257 -0.682636,3.0110741 -2.047905,8.4160455 -1.365269,5.40497 -2.066605,8.238372 -2.104012,8.500206 0,0.0374 0,0.112213 0,0.224426 0,0.112215 -0.0093,0.205726 -0.02805,0.280535 z"
                   id="path31"
                   style="stroke-width:0.3;stroke-dasharray:none" />
              </g>
              <g
                 id="strokes-9af80f9f-e908-80a8-8007-ec56e632ae6c-0a164559-52a5-80c2-8006-305e120df14d"
                 class="strokes"
                 style="stroke-width:0.3;stroke-dasharray:none">
                <g
                   class="stroke-shape"
                   id="g32"
                   style="stroke-width:0.3;stroke-dasharray:none">
                  <path
                     d="m 50.558445,22.038389 c 0,0.617176 0.23378,0.925764 0.701336,0.925764 0.691986,0 1.281109,-0.98187 1.767372,-2.945614 0.112213,-0.374048 0.205723,-0.570421 0.280533,-0.589124 0.03741,-0.0187 0.130916,-0.02805 0.280537,-0.02805 h 0.112213 c 0.168319,0 0.280532,0 0.336643,0 0.05611,0 0.102859,0.0187 0.140266,0.05611 0.0374,0.0374 0.05611,0.102863 0.05611,0.196375 -0.0187,0.112215 -0.04676,0.261833 -0.08416,0.448856 -0.03741,0.187023 -0.14027,0.542368 -0.30859,1.066033 -0.16832,0.523664 -0.355343,0.963169 -0.561069,1.318514 -0.205727,0.355342 -0.49561,0.701335 -0.869656,1.037979 -0.37405,0.336641 -0.804203,0.495611 -1.290463,0.476907 -0.673282,0 -1.299812,-0.205724 -1.879581,-0.617176 -0.579773,-0.411451 -0.879009,-1.103437 -0.897713,-2.075958 0,-0.224426 0.0094,-0.383396 0.02805,-0.476908 l 1.823474,-7.237798 c 1.17825,-4.7690929 1.767373,-7.2284482 1.767373,-7.3780673 0,-0.056107 -0.0094,-0.1028624 -0.02805,-0.1402674 -0.0187,-0.037404 -0.05611,-0.074809 -0.112217,-0.1122131 -0.05611,-0.037405 -0.102859,-0.056108 -0.140266,-0.056108 -0.0374,0 -0.112213,-0.00935 -0.224426,-0.028053 -0.112213,-0.018702 -0.187023,-0.028053 -0.22443,-0.028053 -0.0374,0 -0.121563,-0.00935 -0.25248,-0.028053 -0.130917,-0.018702 -0.22443,-0.018702 -0.280537,0 -0.187023,0 -0.308586,0 -0.364692,0 -0.05611,0 -0.130917,-0.00935 -0.22443,-0.028054 -0.09351,-0.018702 -0.149617,-0.046756 -0.16832,-0.08416 -0.0187,-0.037405 -0.02805,-0.093512 -0.02805,-0.1683216 0,-0.037404 0.0187,-0.1683207 0.05611,-0.3927479 0.09351,-0.3553448 0.196373,-0.5517187 0.30859,-0.5891237 0.112213,-0.037404 0.785496,-0.093512 2.019848,-0.1683207 0.280537,-0.018702 0.598476,-0.037405 0.953819,-0.056106 0.355343,-0.018702 0.63588,-0.046757 0.841606,-0.084161 0.205723,-0.037405 0.308587,-0.046756 0.308587,-0.028053 0.22443,0 0.336643,0.074809 0.336643,0.2244272 0,0.2057257 -0.682636,3.0110741 -2.047905,8.4160455 -1.365269,5.40497 -2.066605,8.238372 -2.104012,8.500206 0,0.0374 0,0.112213 0,0.224426 0,0.112215 -0.0093,0.205726 -0.02805,0.280535 z"
                     style="fill:none;stroke:#000000;stroke-width:0.3;stroke-dasharray:none;stroke-opacity:1"
                     id="path32" />
                </g>
              </g>
            </g>
          </g>
          <g
             id="shape-0a164559-52a5-80c2-8006-305e120e0a40"
             rx="0"
             ry="0"
             style="display:inline;fill:#000000;stroke-width:0.3;stroke-dasharray:none">
            <g
               id="shape-0a164559-52a5-80c2-8006-305e120f59da"
               style="stroke-width:0.3;stroke-dasharray:none">
              <g
                 class="fills"
                 id="fills-0a164559-52a5-80c2-8006-305e120f59da"
                 style="stroke-width:0.3;stroke-dasharray:none">
                <path
                   d="m 57.964565,24.002132 c -0.243129,0 -0.439506,-0.06546 -0.589122,-0.196373 -0.149621,-0.130916 -0.252484,-0.243131 -0.30859,-0.336643 -0.05611,-0.09351 -0.07481,-0.177671 -0.05611,-0.252481 0,-0.24313 0.439507,-2.113362 1.318516,-5.610695 0.879005,-3.497336 1.355915,-5.339514 1.430725,-5.526537 0.24313,-0.523665 0.673283,-0.785498 1.290462,-0.785498 0.224427,0.0187 0.41145,0.08416 0.56107,0.196375 0.149616,0.112214 0.24313,0.233779 0.280533,0.364695 0.03741,0.130916 0.05611,0.224428 0.05611,0.280534 0,0.205727 -0.15897,0.907063 -0.476909,2.104012 l -0.448853,1.879583 c 0.0187,0.0187 0.16832,-0.04675 0.448853,-0.196375 0.280536,-0.149618 0.533016,-0.289885 0.757442,-0.420801 0.31794,-0.224428 0.981873,-0.757444 1.991799,-1.599048 1.009925,-0.841605 1.851531,-1.430728 2.524818,-1.767371 0.673279,-0.336641 1.337212,-0.514313 1.991791,-0.533015 0.411453,0 0.720039,0.102863 0.925766,0.308588 0.205726,0.205726 0.317939,0.476909 0.336647,0.813551 0,0.467558 -0.168328,0.879009 -0.504967,1.234353 -0.336639,0.355345 -0.757446,0.542368 -1.262405,0.56107 -0.355347,0 -0.645234,-0.102863 -0.86966,-0.308588 -0.224426,-0.205726 -0.345993,-0.486261 -0.364693,-0.841604 0,-0.03741 0.0187,-0.14962 0.05611,-0.336643 l -0.280533,0.140268 c -0.542373,0.280534 -1.309166,0.841604 -2.300392,1.683208 l -1.739311,1.374622 -0.364693,0.25248 h 0.140267 c 0.317939,0 0.832252,0.05611 1.542938,0.168322 0.710686,0.112215 1.327865,0.308588 1.851532,0.589122 1.047325,0.504963 1.570991,1.253056 1.570991,2.24428 0,0.187023 -0.04675,0.523665 -0.140266,1.009924 -0.09351,0.486262 -0.14962,0.925766 -0.16832,1.318514 0,0.766796 0.243134,1.150192 0.729393,1.150192 0.879006,0 1.589691,-1.037977 2.132065,-3.113935 0.05611,-0.224428 0.112213,-0.355345 0.16832,-0.39275 0.05611,-0.0374 0.205726,-0.05611 0.448852,-0.05611 0.355347,0 0.53302,0.08416 0.53302,0.252482 0,0.430153 -0.252487,1.178247 -0.757446,2.244278 -0.504959,1.066032 -1.159546,1.729965 -1.963745,1.991798 -0.187019,0.05611 -0.430153,0.08416 -0.729393,0.08416 -0.841599,0 -1.505531,-0.252481 -1.991791,-0.757444 -0.486259,-0.504961 -0.738747,-1.187598 -0.757446,-2.047903 0,-0.336642 0.02805,-0.63588 0.08416,-0.897713 0.05611,-0.261831 0.08416,-0.486259 0.08416,-0.673283 0,-0.448856 -0.177673,-0.822902 -0.533012,-1.122139 -0.355347,-0.299238 -0.813553,-0.514314 -1.374626,-0.645231 -0.561066,-0.130915 -1.019272,-0.215076 -1.374619,-0.252481 -0.355342,-0.0374 -0.701335,-0.06546 -1.037979,-0.08416 h -0.140266 l -0.701336,2.777294 c -0.486263,1.870234 -0.757446,2.861456 -0.813553,2.973671 -0.24313,0.504961 -0.645229,0.757442 -1.206299,0.757442 z"
                   id="path33"
                   style="stroke-width:0.3;stroke-dasharray:none" />
              </g>
              <g
                 id="strokes-9af80f9f-e908-80a8-8007-ec56e6336bfb-0a164559-52a5-80c2-8006-305e120f59da"
                 class="strokes"
                 style="stroke-width:0.3;stroke-dasharray:none">
                <g
                   class="stroke-shape"
                   id="g34"
                   style="stroke-width:0.3;stroke-dasharray:none">
                  <path
                     d="m 57.964565,24.002132 c -0.243129,0 -0.439506,-0.06546 -0.589122,-0.196373 -0.149621,-0.130916 -0.252484,-0.243131 -0.30859,-0.336643 -0.05611,-0.09351 -0.07481,-0.177671 -0.05611,-0.252481 0,-0.24313 0.439507,-2.113362 1.318516,-5.610695 0.879005,-3.497336 1.355915,-5.339514 1.430725,-5.526537 0.24313,-0.523665 0.673283,-0.785498 1.290462,-0.785498 0.224427,0.0187 0.41145,0.08416 0.56107,0.196375 0.149616,0.112214 0.24313,0.233779 0.280533,0.364695 0.03741,0.130916 0.05611,0.224428 0.05611,0.280534 0,0.205727 -0.15897,0.907063 -0.476909,2.104012 l -0.448853,1.879583 c 0.0187,0.0187 0.16832,-0.04675 0.448853,-0.196375 0.280536,-0.149618 0.533016,-0.289885 0.757442,-0.420801 0.31794,-0.224428 0.981873,-0.757444 1.991799,-1.599048 1.009925,-0.841605 1.851531,-1.430728 2.524818,-1.767371 0.673279,-0.336641 1.337212,-0.514313 1.991791,-0.533015 0.411453,0 0.720039,0.102863 0.925766,0.308588 0.205726,0.205726 0.317939,0.476909 0.336647,0.813551 0,0.467558 -0.168328,0.879009 -0.504967,1.234353 -0.336639,0.355345 -0.757446,0.542368 -1.262405,0.56107 -0.355347,0 -0.645234,-0.102863 -0.86966,-0.308588 -0.224426,-0.205726 -0.345993,-0.486261 -0.364693,-0.841604 0,-0.03741 0.0187,-0.14962 0.05611,-0.336643 l -0.280533,0.140268 c -0.542373,0.280534 -1.309166,0.841604 -2.300392,1.683208 l -1.739311,1.374622 -0.364693,0.25248 h 0.140267 c 0.317939,0 0.832252,0.05611 1.542938,0.168322 0.710686,0.112215 1.327865,0.308588 1.851532,0.589122 1.047325,0.504963 1.570991,1.253056 1.570991,2.24428 0,0.187023 -0.04675,0.523665 -0.140266,1.009924 -0.09351,0.486262 -0.14962,0.925766 -0.16832,1.318514 0,0.766796 0.243134,1.150192 0.729393,1.150192 0.879006,0 1.589691,-1.037977 2.132065,-3.113935 0.05611,-0.224428 0.112213,-0.355345 0.16832,-0.39275 0.05611,-0.0374 0.205726,-0.05611 0.448852,-0.05611 0.355347,0 0.53302,0.08416 0.53302,0.252482 0,0.430153 -0.252487,1.178247 -0.757446,2.244278 -0.504959,1.066032 -1.159546,1.729965 -1.963745,1.991798 -0.187019,0.05611 -0.430153,0.08416 -0.729393,0.08416 -0.841599,0 -1.505531,-0.252481 -1.991791,-0.757444 -0.486259,-0.504961 -0.738747,-1.187598 -0.757446,-2.047903 0,-0.336642 0.02805,-0.63588 0.08416,-0.897713 0.05611,-0.261831 0.08416,-0.486259 0.08416,-0.673283 0,-0.448856 -0.177673,-0.822902 -0.533012,-1.122139 -0.355347,-0.299238 -0.813553,-0.514314 -1.374626,-0.645231 -0.561066,-0.130915 -1.019272,-0.215076 -1.374619,-0.252481 -0.355342,-0.0374 -0.701335,-0.06546 -1.037979,-0.08416 h -0.140266 l -0.701336,2.777294 c -0.486263,1.870234 -0.757446,2.861456 -0.813553,2.973671 -0.24313,0.504961 -0.645229,0.757442 -1.206299,0.757442 z"
                     style="fill:none;stroke:#000000;stroke-width:0.3;stroke-dasharray:none;stroke-opacity:1"
                     id="path34" />
                </g>
              </g>
            </g>
          </g>
          <g
             id="shape-0a164559-52a5-80c2-8006-305e120fac88"
             rx="0"
             ry="0"
             style="display:inline;fill:#000000;stroke-width:0.3;stroke-dasharray:none">
            <g
               id="shape-0a164559-52a5-80c2-8006-305e12102479"
               style="stroke-width:0.3;stroke-dasharray:none">
              <g
                 class="fills"
                 id="fills-0a164559-52a5-80c2-8006-305e12102479"
                 style="display:inline;stroke-width:0.3;stroke-dasharray:none">
                <path
                   d="m 72.889015,15.726356 c -0.392746,0 -0.589119,-0.09351 -0.589119,-0.280535 0,-0.130916 0.25248,-0.542367 0.757439,-1.234353 0.504967,-0.691986 1.009926,-1.253056 1.514892,-1.683209 0.65458,-0.504963 1.262406,-0.794849 1.823479,-0.869658 0.112213,-0.03741 1.683205,-0.05611 4.712982,-0.05611 2.992371,0 4.535309,0.0187 4.628823,0.05611 0.374046,0.09351 0.561073,0.345993 0.561073,0.757443 0,0.261833 -0.08416,0.504963 -0.25248,0.729391 -0.168327,0.224429 -0.3834,0.374047 -0.645233,0.448857 -0.112213,0.0374 -1.009926,0.05611 -2.693138,0.05611 -1.683204,0 -2.524811,0.0187 -2.524811,0.05611 -0.0187,0.0187 -0.168319,0.785497 -0.448852,2.300386 -0.280541,1.514887 -0.579773,3.057829 -0.897713,4.628824 -0.31794,1.570996 -0.486259,2.403248 -0.504967,2.49676 -0.0935,0.280535 -0.261833,0.504963 -0.504959,0.673284 -0.243133,0.16832 -0.514312,0.25248 -0.813553,0.25248 -0.617172,0 -0.925766,-0.308588 -0.925766,-0.925764 V 22.85194 l 1.40268,-4.544664 c 0.205719,-0.673283 0.430153,-1.421376 0.673279,-2.244278 0.243133,-0.822903 0.439506,-1.421377 0.589126,-1.795424 l 0.16832,-0.589122 c 0,-0.0187 -0.430153,-0.02805 -1.290459,-0.02805 -0.03741,0 -0.140266,0 -0.308593,0 -0.16832,0 -0.299233,-0.0094 -0.392746,-0.02805 -1.458779,0 -2.599625,0.598474 -3.422524,1.795423 -0.09351,0.149619 -0.16832,0.233778 -0.224426,0.252481 -0.05611,0.0187 -0.187027,0.0374 -0.392754,0.05611 z"
                   id="path35"
                   style="stroke-width:0.3;stroke-dasharray:none" />
              </g>
              <g
                 id="strokes-9af80f9f-e908-80a8-8007-ec56e633efb3-0a164559-52a5-80c2-8006-305e12102479"
                 class="strokes"
                 style="display:inline;stroke-width:0.3;stroke-dasharray:none">
                <g
                   class="stroke-shape"
                   id="g36"
                   style="stroke-width:0.3;stroke-dasharray:none">
                  <path
                     d="m 72.889015,15.726356 c -0.392746,0 -0.589119,-0.09351 -0.589119,-0.280535 0,-0.130916 0.25248,-0.542367 0.757439,-1.234353 0.504967,-0.691986 1.009926,-1.253056 1.514892,-1.683209 0.65458,-0.504963 1.262406,-0.794849 1.823479,-0.869658 0.112213,-0.03741 1.683205,-0.05611 4.712982,-0.05611 2.992371,0 4.535309,0.0187 4.628823,0.05611 0.374046,0.09351 0.561073,0.345993 0.561073,0.757443 0,0.261833 -0.08416,0.504963 -0.25248,0.729391 -0.168327,0.224429 -0.3834,0.374047 -0.645233,0.448857 -0.112213,0.0374 -1.009926,0.05611 -2.693138,0.05611 -1.683204,0 -2.524811,0.0187 -2.524811,0.05611 -0.0187,0.0187 -0.168319,0.785497 -0.448852,2.300386 -0.280541,1.514887 -0.579773,3.057829 -0.897713,4.628824 -0.31794,1.570996 -0.486259,2.403248 -0.504967,2.49676 -0.0935,0.280535 -0.261833,0.504963 -0.504959,0.673284 -0.243133,0.16832 -0.514312,0.25248 -0.813553,0.25248 -0.617172,0 -0.925766,-0.308588 -0.925766,-0.925764 V 22.85194 l 1.40268,-4.544664 c 0.205719,-0.673283 0.430153,-1.421376 0.673279,-2.244278 0.243133,-0.822903 0.439506,-1.421377 0.589126,-1.795424 l 0.16832,-0.589122 c 0,-0.0187 -0.430153,-0.02805 -1.290459,-0.02805 -0.03741,0 -0.140266,0 -0.308593,0 -0.16832,0 -0.299233,-0.0094 -0.392746,-0.02805 -1.458779,0 -2.599625,0.598474 -3.422524,1.795423 -0.09351,0.149619 -0.16832,0.233778 -0.224426,0.252481 -0.05611,0.0187 -0.187027,0.0374 -0.392754,0.05611 z"
                     style="fill:none;stroke:#000000;stroke-width:0.3;stroke-dasharray:none;stroke-opacity:1"
                     id="path36" />
                </g>
              </g>
            </g>
          </g>
        </g>
      </g>
      <g
         id="inf"
         rx="0"
         ry="0"
         style="display:inline;stroke-width:0.3;stroke-dasharray:none">
        <g
           id="shape-0a164559-52a5-80c2-8006-30589c291032"
           style="display:inline;stroke-width:0.3;stroke-dasharray:none">
          <g
             class="text-container"
             x="73"
             y="55"
             width="44"
             height="72.91428571428574"
             rx="0"
             ry="0"
             id="g38"
             style="stroke-width:0.3;stroke-dasharray:none"
             transform="matrix(0.99999892,0,0,1,8.5813573,-1.0713536)">
            <defs
               id="defs37" />
            <g
               class="fills"
               id="fills-0a164559-52a5-80c2-8006-30589c291032"
               style="stroke-width:0.3;stroke-dasharray:none">
              <text
                 x="73"
                 y="145.66667"
                 dominant-baseline="ideographic"
                 textLength="51.4375"
                 lengthAdjust="spacingAndGlyphs"
                 style="font-style:normal;font-weight:300;font-size:72px;font-family:sourcesanspro;letter-spacing:normal;text-transform:none;direction:ltr;white-space:pre;fill:#000000;fill-opacity:1;stroke-width:0.3;stroke-dasharray:none"
                 id="text37">∝</text>
            </g>
          </g>
        </g>
      </g>
    </g>
  </g>
</svg>
